<?xml version="1.0" standalone="no"?>
<!DOCTYPE svg PUBLIC "-//W3C//DTD SVG 20010904//EN"
 "http://www.w3.org/TR/2001/REC-SVG-20010904/DTD/svg10.dtd">
<svg version="1.0" xmlns="http://www.w3.org/2000/svg"
 width="512.000000pt" height="512.000000pt" viewBox="0 0 512.000000 512.000000"
 preserveAspectRatio="xMidYMid meet">
<metadata>
Created by potrace 1.14, written by Peter Selinger 2001-2017
</metadata>
<g transform="translate(0.000000,512.000000) scale(0.100000,-0.100000)"
fill="#000000" stroke="none">
<path d="M2369 5116 c-2 -2 -38 -6 -79 -10 -41 -3 -86 -8 -100 -11 -14 -3 -45
-8 -70 -11 -25 -3 -106 -22 -180 -41 -74 -19 -142 -35 -150 -36 -8 -1 -17 -4
-20 -7 -7 -7 -103 -42 -117 -43 -7 0 -13 -4 -13 -9 0 -4 -8 -8 -18 -8 -10 0
-22 -3 -26 -7 -4 -5 -11 -8 -14 -9 -4 0 -20 -7 -37 -14 -16 -7 -33 -13 -37
-12 -5 1 -8 -3 -8 -8 0 -6 -5 -10 -11 -10 -16 0 -102 -43 -111 -55 -5 -7 -8
-7 -8 0 0 7 -3 7 -8 0 -4 -5 -27 -21 -52 -34 -81 -44 -259 -164 -306 -206 -6
-5 -33 -28 -60 -50 -186 -153 -412 -431 -531 -655 -22 -41 -46 -86 -54 -100
-7 -14 -14 -27 -15 -30 -1 -6 -37 -86 -62 -140 -9 -19 -17 -37 -17 -40 0 -3
-6 -14 -11 -25 -11 -19 -23 -60 -23 -78 0 -4 -8 -21 -16 -37 -9 -17 -13 -30
-10 -30 3 0 1 -8 -4 -19 -15 -27 -67 -243 -81 -331 -6 -41 -14 -86 -16 -100
-19 -112 -33 -487 -18 -511 3 -5 0 -9 -6 -9 -6 0 -8 -4 -5 -10 3 -5 8 -42 10
-82 3 -40 7 -93 10 -118 9 -74 17 -133 21 -160 12 -74 15 -87 19 -115 7 -51
44 -196 71 -280 15 -44 27 -84 28 -90 1 -5 8 -21 16 -35 7 -14 13 -27 13 -30
-1 -5 9 -31 29 -77 6 -16 12 -30 13 -33 3 -13 89 -182 121 -239 38 -68 110
-178 130 -199 7 -6 16 -21 19 -32 3 -11 10 -20 14 -20 5 0 20 -17 34 -38 13
-20 44 -58 68 -84 24 -25 51 -55 60 -65 89 -104 356 -312 492 -383 26 -14 47
-28 47 -32 0 -5 7 -8 15 -8 17 0 50 -17 79 -40 10 -8 20 -14 22 -12 3 2 24 -5
47 -16 81 -39 140 -62 153 -62 8 0 14 -4 14 -8 0 -5 6 -9 13 -9 6 0 64 -16
127 -36 63 -19 158 -44 210 -55 94 -20 117 -24 215 -37 28 -4 61 -9 75 -11 47
-9 435 -12 490 -4 30 4 75 11 100 14 121 18 358 86 478 137 23 10 42 17 42 14
0 -11 350 174 381 201 8 8 18 14 22 14 9 0 196 131 267 187 60 47 139 113 169
140 20 18 40 29 47 25 17 -9 74 -89 74 -103 0 -5 4 -7 10 -4 6 3 10 0 10 -8 0
-8 9 -25 21 -38 20 -23 93 -124 114 -158 6 -9 12 -18 15 -21 3 -3 23 -30 45
-60 22 -30 45 -61 52 -68 7 -7 13 -17 13 -21 0 -4 9 -19 21 -32 12 -13 39 -50
60 -81 l40 -58 149 0 150 0 0 2418 0 2418 -142 -1 c-110 0 -148 -4 -163 -15
-11 -8 -49 -51 -85 -95 -35 -44 -67 -82 -70 -85 -3 -3 -25 -30 -50 -60 -25
-30 -50 -61 -57 -68 -7 -7 -29 -34 -50 -60 -21 -26 -42 -52 -48 -58 -23 -24
-86 -100 -98 -116 -11 -16 -16 -14 -57 23 -25 22 -62 54 -82 71 -20 16 -47 39
-60 50 -13 11 -48 39 -78 62 -30 22 -56 44 -58 49 -2 4 -10 7 -17 7 -7 0 -15
4 -17 8 -7 19 -280 191 -302 190 -5 0 -12 5 -15 10 -8 12 -185 97 -271 129
-36 13 -72 27 -80 30 -8 3 -19 7 -25 9 -191 58 -279 80 -360 90 -22 3 -47 7
-55 11 -15 6 -415 14 -421 9z m436 -1277 c61 -16 116 -30 123 -31 6 -1 12 -5
12 -10 0 -4 8 -8 18 -8 10 0 28 -7 40 -16 12 -8 22 -12 22 -7 0 4 4 4 8 -2 6
-9 35 -26 123 -72 15 -7 32 -20 39 -28 7 -8 17 -15 22 -15 15 0 158 -123 205
-177 23 -26 51 -59 63 -73 34 -39 144 -208 146 -226 1 -9 9 -23 17 -32 11 -14
50 -105 52 -122 0 -3 3 -9 6 -15 8 -13 38 -106 44 -134 2 -12 6 -30 9 -39 37
-124 40 -377 5 -537 -6 -27 -18 -70 -26 -95 -8 -25 -16 -49 -17 -55 -8 -46
-106 -256 -134 -288 -9 -10 -17 -25 -18 -34 -2 -9 -6 -19 -11 -22 -5 -3 -22
-24 -38 -47 -57 -78 -120 -147 -191 -208 -103 -87 -127 -106 -141 -106 -7 0
-13 -4 -13 -9 0 -5 -16 -17 -36 -27 -20 -11 -50 -27 -68 -36 -41 -22 -173 -78
-200 -85 -117 -28 -242 -44 -361 -45 -75 -1 -301 40 -345 61 -8 5 -23 7 -32 5
-10 -1 -18 2 -18 7 0 5 -7 9 -15 9 -18 0 -169 72 -173 83 -2 4 -9 7 -16 7 -11
0 -29 12 -110 73 -82 62 -255 247 -230 247 4 0 0 6 -9 13 -16 12 -130 227
-120 227 3 0 0 7 -7 15 -7 8 -9 15 -5 15 4 0 3 6 -2 13 -8 10 -23 57 -25 77 0
3 -5 16 -10 30 -5 14 -12 34 -14 45 -2 11 -6 31 -9 45 -34 158 -39 492 -10
630 3 14 7 39 9 55 2 17 9 42 15 58 6 15 9 27 6 27 -2 0 5 26 16 58 11 31 22
62 23 67 16 60 95 211 155 300 40 58 193 215 210 215 6 0 11 3 11 8 0 15 235
152 262 152 4 0 19 5 35 12 15 6 31 12 36 13 4 2 8 3 10 5 2 2 7 3 77 20 107
27 194 37 330 37 128 0 158 -3 255 -28z"/>
<path d="M2410 3395 c-68 -12 -175 -47 -221 -70 -113 -59 -259 -187 -326 -287
-69 -102 -133 -266 -149 -379 -9 -68 -10 -230 0 -289 31 -198 140 -406 275
-525 19 -16 39 -35 45 -40 56 -55 224 -141 315 -160 11 -3 31 -8 44 -11 39
-11 240 -13 287 -4 83 17 93 19 129 31 20 7 65 27 101 45 343 172 537 562 474
954 -13 84 -46 194 -72 245 -9 17 -16 33 -17 37 0 4 -6 13 -12 20 -7 6 -13 16
-13 20 0 8 -15 31 -60 92 -31 43 -147 154 -195 187 -81 57 -207 112 -299 130
-78 16 -233 18 -306 4z"/>
</g>
</svg>
