<?xml version="1.0" encoding="UTF-8" standalone="no"?>
<!-- Created with Inkscape (http://www.inkscape.org/) -->

<svg
   xmlns:dc="http://purl.org/dc/elements/1.1/"
   xmlns:cc="http://creativecommons.org/ns#"
   xmlns:rdf="http://www.w3.org/1999/02/22-rdf-syntax-ns#"
   xmlns:svg="http://www.w3.org/2000/svg"
   xmlns="http://www.w3.org/2000/svg"
   xmlns:sodipodi="http://sodipodi.sourceforge.net/DTD/sodipodi-0.dtd"
   xmlns:inkscape="http://www.inkscape.org/namespaces/inkscape"
   width="113.55453mm"
   height="106.32704mm"
   viewBox="0 0 113.55453 106.32704"
   version="1.1"
   id="svg4587"
   inkscape:version="0.92pre3 15195"
   sodipodi:docname="phoneapp.svg">
  <defs
     id="defs4581" />
  <sodipodi:namedview
     id="base"
     pagecolor="#ffffff"
     bordercolor="#666666"
     borderopacity="1.0"
     inkscape:pageopacity="0.0"
     inkscape:pageshadow="2"
     inkscape:zoom="0.35"
     inkscape:cx="-382.55164"
     inkscape:cy="232.36158"
     inkscape:document-units="mm"
     inkscape:current-layer="layer1"
     showgrid="false"
     fit-margin-top="0"
     fit-margin-left="0"
     fit-margin-right="0"
     fit-margin-bottom="0"
     inkscape:window-width="1440"
     inkscape:window-height="837"
     inkscape:window-x="-4"
     inkscape:window-y="-4"
     inkscape:window-maximized="1" />
  <metadata
     id="metadata4584">
    <rdf:RDF>
      <cc:Work
         rdf:about="">
        <dc:format>image/svg+xml</dc:format>
        <dc:type
           rdf:resource="http://purl.org/dc/dcmitype/StillImage" />
        <dc:title></dc:title>
      </cc:Work>
    </rdf:RDF>
  </metadata>
  <g
     inkscape:label="Layer 1"
     inkscape:groupmode="layer"
     id="layer1"
     transform="translate(-18.817977,-103.98529)">
    <g
       id="g4550"
       transform="matrix(-0.26458333,0,0,0.26458333,132.37238,100.37161)">
      <g
         id="g4491">
        <g
           id="g4489">
          <path
             id="path4483"
             d="m 400.061,77.791 c -3.845,0 -6.968,-3.54 -6.968,-7.901 V 37.375 c 0,-13.068 -10.648,-23.717 -23.714,-23.717 H 222.504 c -13.068,0 -23.72,10.648 -23.72,23.717 v 28.282 c 0,4.359 -3.529,8.343 -7.726,9.526 -19.883,5.642 -31.092,20.589 -36.434,30.818 -2.021,3.872 -6.642,7.973 -10.783,9.339 -16.59,5.489 -32.271,16.32 -40.645,28.446 L 34.07,243.858 C 22.433,260.721 9.777,287.645 5.874,303.864 l -5.601,23.242 c -1.018,4.245 0.894,8.343 4.276,9.155 3.379,0.812 6.952,-1.965 7.97,-6.21 l 5.586,-23.222 c 3.618,-14.98 15.419,-40.01 26.322,-55.792 L 113.553,150.958 C 123.79,136.13 146.788,124.083 164.8,124.083 h 52.44 4.639 47.357 c 10.399,0 18.859,8.455 18.859,18.842 v 3.936 c 0,10.395 -8.455,18.857 -18.859,18.857 h -47.357 -4.639 -42.835 c -3.469,0 -6.294,2.818 -6.294,6.296 0,3.469 2.818,6.294 6.294,6.294 h 16.48 c 4.359,0 7.898,3.54 7.898,7.901 v 1.912 c 0,4.362 -0.962,11.312 -2.511,15.389 -23.13,60.989 -95.598,70.043 -99.051,70.444 -1.673,0.168 -3.166,1.006 -4.225,2.315 -1.051,1.311 -1.526,2.961 -1.343,4.631 0.355,3.189 3.042,5.597 6.294,5.597 0.01,0 0.65,-0.046 0.65,-0.046 0.812,-0.086 62.101,-7.581 95.755,-53.456 2.582,-3.519 4.43,-2.996 4.43,1.366 V 339.39 c 0,6.779 2.869,12.889 7.452,17.199 3.174,2.996 3.768,6.581 0.15,9.029 -25.786,17.453 -54.55,21.078 -73.938,21.078 -10.679,0 -17.783,-1.147 -18.547,-1.265 -1.574,-0.31 -3.184,0.168 -4.41,1.204 -1.208,1.016 -1.902,2.508 -1.902,4.107 v 19.394 c 0,2.96 2.425,5.388 5.403,5.388 2.971,0 5.395,-2.428 5.395,-5.388 0,0 0,-2.996 0,-6.683 0,-3.692 2.757,-6.449 6.17,-6.322 1.881,0.071 3.951,0.117 6.185,0.117 23.552,0 59.615,-4.784 89.888,-29.001 3.402,-2.722 9.536,-5.124 13.894,-5.124 h 134.841 c 13.065,0 23.714,-10.668 23.714,-23.734 v -66.856 c 0,-4.362 3.123,-7.901 6.967,-7.901 h 6.967 c 12.223,0 22.171,-11.816 22.171,-26.354 v -2.097 c 0,-5.525 -1.453,-10.624 -3.926,-14.838 -2.203,-3.769 -2.203,-8.471 0,-12.238 2.463,-4.22 3.926,-9.313 3.926,-14.838 v -2.1 c 0,-5.522 -1.453,-10.618 -3.926,-14.846 -2.198,-3.768 -2.203,-8.475 0,-12.243 2.463,-4.22 3.926,-9.315 3.926,-14.838 v -2.1 c 0,-5.522 -1.453,-10.618 -3.926,-14.838 -2.203,-3.768 -2.203,-8.467 0,-12.228 2.463,-4.22 3.926,-9.315 3.926,-14.838 v -2.1 c 0,-14.536 -9.948,-26.354 -22.171,-26.354 0.026,0.009 -3.092,0.009 -6.95,0.009 z M 229.775,178.294 h 39.461 c 17.352,0 31.453,-14.102 31.453,-31.443 v -3.933 c 0,-17.326 -14.102,-31.435 -31.453,-31.435 h -39.461 c -4.357,0 -7.896,-3.54 -7.896,-7.899 V 64.763 c 0,-4.359 3.539,-7.898 7.896,-7.898 h 132.327 c 4.361,0 7.901,3.539 7.901,7.898 v 244.703 c 0,4.361 -3.54,7.901 -7.901,7.901 H 229.775 c -4.357,0 -7.896,-3.54 -7.896,-7.901 V 186.195 c 0,-4.362 3.539,-7.901 7.896,-7.901 z M 369.379,353.842 H 222.504 c -7.958,0 -14.437,-6.495 -14.437,-14.457 V 215.99 c 0,-4.357 -0.132,-7.574 -0.322,-7.186 -0.183,0.386 1.018,-2.584 2.354,-6.73 1.604,-5.018 2.922,-10.326 3.895,-15.942 0.744,-4.299 1.579,-7.823 2.173,-7.823 0.592,0 1.074,3.54 1.074,7.901 v 133.472 c 0,1.279 1.033,2.33 2.313,2.33 h 152.771 c 1.279,0 2.315,-1.051 2.315,-2.33 V 54.549 c 0,-1.28 -1.036,-2.331 -2.315,-2.331 H 219.554 c -1.28,0 -2.313,1.051 -2.313,2.331 v 49.035 c 0,4.359 -3.539,7.899 -7.901,7.899 h -35.731 c -4.36,0 -6.391,-3.222 -3.816,-6.746 5.72,-7.835 15.571,-16.384 30.227,-18.692 4.306,-0.678 7.876,-3.255 7.876,-6.533 0,-3.27 0.094,-9.463 0.119,-13.825 0.063,-10.656 0.063,-28.312 0.063,-28.312 0,-7.965 6.477,-14.442 14.432,-14.442 h 146.875 c 7.973,0 14.438,6.477 14.438,14.442 v 302.01 c -0.012,7.962 -6.471,14.457 -14.444,14.457 z m 37.658,-100.016 c 0,0 -2.544,0 -5.688,0 -3.143,0 -5.687,-3.539 -5.687,-7.901 v -17.402 c 0,-4.361 2.544,-7.901 5.687,-7.901 h 5.688 c 6.271,0 11.37,6.978 11.37,15.56 v 2.097 c 0,8.57 -5.098,15.547 -11.37,15.547 z m 0,-44.011 c 0,0 -2.544,0 -5.688,0 -3.143,0 -5.687,-3.54 -5.687,-7.901 v -17.417 c 0,-4.362 2.544,-7.901 5.687,-7.901 h 5.688 c 6.271,0 11.37,6.993 11.37,15.572 v 2.1 c 0,8.57 -5.098,15.547 -11.37,15.547 z m 0,-44.018 c 0,0 -2.544,0 -5.688,0 -3.143,0 -5.687,-3.539 -5.687,-7.901 v -17.402 c 0,-4.362 2.544,-7.901 5.687,-7.901 h 5.688 c 6.271,0 11.37,6.978 11.37,15.557 v 2.1 c 0,8.57 -5.098,15.547 -11.37,15.547 z m 0,-44.003 c 0,0 -2.544,0 -5.688,0 -3.143,0 -5.687,-3.54 -5.687,-7.901 V 96.475 c 0,-4.362 2.544,-7.901 5.687,-7.901 h 5.688 c 6.271,0 11.37,6.993 11.37,15.572 v 2.102 c 0,8.568 -5.098,15.546 -11.37,15.546 z"
             inkscape:connector-curvature="0" />
          <path
             id="path4485"
             d="m 308.981,33.473 h -26.075 c -1.274,0 -2.315,1.033 -2.315,2.312 0,1.28 1.041,2.331 2.315,2.331 h 26.075 c 1.279,0 2.315,-1.051 2.315,-2.331 0.001,-1.279 -1.035,-2.312 -2.315,-2.312 z"
             inkscape:connector-curvature="0" />
          <path
             id="path4487"
             d="m 309.296,327.294 h -26.71 c -5.474,0 -9.952,4.459 -9.952,9.938 v 1.59 c 0,5.475 4.474,9.953 9.952,9.953 h 26.71 c 5.479,0 9.958,-4.469 9.958,-9.953 v -1.59 c -0.01,-5.474 -4.479,-9.938 -9.958,-9.938 z m 5.302,11.527 c 0,2.93 -2.376,5.312 -5.307,5.312 h -26.71 c -2.925,0 -5.312,-2.382 -5.312,-5.312 v -1.59 c 0,-2.93 2.387,-5.306 5.312,-5.306 h 26.71 c 2.931,0 5.307,2.376 5.307,5.306 z"
             inkscape:connector-curvature="0" />
        </g>
      </g>
      <g
         id="g4493" />
      <g
         id="g4495" />
      <g
         id="g4497" />
      <g
         id="g4499" />
      <g
         id="g4501" />
      <g
         id="g4503" />
      <g
         id="g4505" />
      <g
         id="g4507" />
      <g
         id="g4509" />
      <g
         id="g4511" />
      <g
         id="g4513" />
      <g
         id="g4515" />
      <g
         id="g4517" />
      <g
         id="g4519" />
      <g
         id="g4521" />
    </g>
  </g>
</svg>
